<?xml version="1.0" encoding="utf-8"?>
<!-- Generator: Adobe Illustrator 19.2.1, SVG Export Plug-In . SVG Version: 6.00 Build 0)  -->
<svg version="1.1" id="layer" xmlns="http://www.w3.org/2000/svg" xmlns:xlink="http://www.w3.org/1999/xlink" x="0px" y="0px"
	 viewBox="0 0 652 652" style="enable-background:new 0 0 652 652;" xml:space="preserve">
<style type="text/css">
	.st0{fill:#D22432;}
	.st1{fill:#37A649;}
	.st2{fill:#163F25;}
</style>
<g>
	<g>
		<g>
			<polygon class="st0" points="380.8,171.4 380.8,171.4 381.8,171.6 382.6,171.9 384.9,174.3 385.6,174.8 386.3,175 386.8,175 
				389.2,175 391.6,174.8 392.8,175 393.5,175.2 396.3,177.9 396.6,178.4 396.9,178.6 396.6,179.1 396.1,179.3 392.6,179.8 
				392.1,180 391.8,180.2 391.8,180.7 392.1,180.9 394.9,184.3 395.1,185 395.4,185.5 395.1,185.7 394.4,185.9 389.9,187.4 
				388.7,187.6 388.3,187.4 387.8,186.9 384.7,183.1 384.2,182.9 383.7,182.6 383,182.4 382.3,182.6 377.8,184.1 377.3,184.1 
				376.5,184.1 375.8,183.6 374.4,181.9 373,179.8 372.8,178.8 372.8,178.4 373,178.1 373.5,177.9 375.6,177.1 377.8,176.6 
				378,176.4 378.3,176.2 378,175.9 377.8,175.7 375.8,173.6 375.6,173.1 375.4,172.6 375.8,172.1 376.3,171.9 378.7,171.6 			"/>
		</g>
		<g>
			<polygon class="st0" points="399.4,207.9 399.4,207.9 400.4,207.7 401.9,207.4 404.2,207.4 405.1,207.4 405.9,207.7 406.4,208.1 
				406.9,208.8 408.5,212.4 409.9,216.5 411.4,221.3 412.3,226.3 413.3,232 413.7,237.2 414,242.4 414,248.2 414,249.2 413.3,249.9 
				412.6,250.3 411.6,250.6 408.5,250.8 405.6,250.3 405.1,250.1 404.4,249.6 404,248.7 403.7,247.7 403.7,238.4 403.5,233.4 
				403,228.8 402.3,224.3 401.6,219.8 400.4,215.3 398.7,210.5 398.7,209.5 398.7,208.8 399,208.4 			"/>
		</g>
		<g>
			<polygon class="st0" points="358.2,240.8 358.2,240.8 357.7,240.1 357.2,239.4 357,238.6 357,237.7 357.5,235.1 357.7,232.4 
				359.2,227.4 360.8,222.7 362.8,218.4 365.1,214.3 367.5,210.7 369.9,207.7 372.5,204.8 376.1,201.7 379.9,198.6 384,196 
				388.5,193.8 393,191.9 397.8,190.7 402.8,189.8 405.4,189.5 408,189.5 413,189.8 418,190.7 422.8,191.9 427.3,193.6 431.6,195.7 
				435.9,198.4 439.7,201.2 443,204.3 446.4,208.1 449.5,212 452.1,216.3 454.3,220.8 456.2,225.3 457.6,229.8 458.3,234.1 
				458.5,236.3 458.8,238.4 458.5,240.8 458.3,242 457.8,243.2 457.3,244.2 456.4,245.1 455.2,246.3 453.8,247.2 449.8,249.4 
				447.1,250.8 443.7,252 440,253.5 435.5,254.6 430.4,255.6 424.7,256.3 428,254.6 431.2,253.2 433.7,251.5 436.2,249.9 
				438.3,248.4 440.2,247 441.6,245.6 442.8,244.2 444,242.7 444.5,241.5 445,240.6 445.2,239.4 445.2,237.4 445,235.8 444.2,232.4 
				443.5,229.8 442.6,226.7 441.2,223.1 439,219.3 437.6,217.2 436.2,215.3 434.5,213.1 432.6,211 430.7,209.5 429,207.9 
				425.4,205.5 421.9,203.8 418.5,202.4 415.1,201.5 411.9,201 409,200.7 406.4,200.5 402.8,200.7 399,201.2 395.4,202 391.8,203.4 
				388.3,205 384.9,207 381.6,209.5 378.5,212.2 374.9,216.3 371.8,220.3 369.4,224.3 367.2,228.4 365.8,232.2 364.7,235.8 
				364,238.9 363.5,242 363.2,242.9 362.8,243.4 362,243.4 361.5,243.2 360.6,242.7 359.4,241.7 			"/>
		</g>
		<g>
			<polygon class="st1" points="401.3,444.1 401.3,444.1 407.6,440.8 414.2,437.7 420.9,435.1 427.8,433 434.7,431.3 441.6,429.8 
				448.8,429.1 455.7,428.9 459.8,428.9 464,429.4 469.1,429.8 474.3,430.8 480,432.3 486.2,433.9 492.9,436.3 500.2,438.9 
				505,440.8 510,442 514.5,443 518.4,443.2 513.4,443.7 508.1,443.7 502.4,443.7 496.4,443.2 484.1,442 477.3,441.8 470.9,441.6 
				466.2,441.8 460.9,441.8 455.2,442.3 449.2,443 443,443.7 436.6,444.6 430.2,445.8 423.5,447.3 416.9,449.1 409.9,451.3 
				403,453.9 396.3,456.8 389.7,459.9 383.5,463.2 377.8,466.8 372.8,470.6 375.6,467 378.5,463.2 381.8,459.6 385.4,456.3 
				389.2,453 393,449.8 397.1,447 			"/>
		</g>
		<g>
			<polygon class="st1" points="563.8,256.5 563.8,256.5 561.5,254.6 559.1,252.7 554.6,248.4 545.5,238.9 541.5,234.4 537.7,229.8 
				534.1,225.3 530.7,220.8 527.7,216.5 525,212.2 522.7,208.1 520.7,204.1 519.1,200.5 517.9,197 516.9,193.6 516.4,190.7 
				516.4,187.9 516.7,185.5 517.4,183.6 518.1,182.9 518.8,181.9 519.5,181.4 520.2,180.9 522.4,180.2 524.8,180 527.4,180.2 
				530.2,180.9 533.6,181.9 537,183.4 540.8,185.2 544.5,187.4 548.4,190 552.4,192.9 556.7,196.2 561,199.8 565.3,203.6 
				569.6,207.7 573.9,212 577.9,216.5 581.7,221 585.6,225.3 588.9,229.6 592,233.8 594.9,238.1 597.2,242 599.4,245.8 601.3,249.4 
				602.7,252.9 603.7,256 604.4,258.9 604.6,261.5 604.4,263.9 603.9,264.9 603.7,265.8 602.9,266.5 602.5,267.3 600.8,268.5 
				599.2,269.4 597,269.9 594.6,270.6 589.6,271.5 584.6,272.5 579.6,273.9 574.4,275.3 569.3,277 564.3,278.7 554.3,282.8 
				544.3,287.3 534.8,292.1 525.7,297.5 516.9,303 525.5,299.2 534.8,295.7 544.5,292.1 549.8,290.6 555.3,288.9 560.8,287.5 
				566.3,286.4 572,285.4 577.9,284.4 583.9,283.7 590.1,283 596,282.8 602.2,282.8 604.4,282.8 606.5,282.5 608.7,282.1 
				610.6,281.6 612.5,280.8 614.2,279.9 615.8,278.9 617,278 618,276.8 618.9,275.6 619.6,274.2 620.1,272.8 620.3,271 620.6,269.6 
				620.8,266 620.3,262 619.2,258 617.8,253.5 615.6,248.7 613.2,243.9 610.3,238.6 606.7,233.6 602.9,228.1 598.9,222.9 
				594.4,217.4 589.4,212 584.1,206.5 578.6,201.2 573.1,196.4 567.7,191.9 562.2,187.9 556.7,184.3 551.3,180.9 546,178.1 
				541,175.7 536.2,174.1 531.5,172.6 527.2,171.6 523.1,171.4 519.3,171.6 517.7,171.9 515.9,172.3 514.5,172.8 513.1,173.8 
				511.9,174.5 510.7,175.7 509.8,176.6 508.8,177.9 508.1,179.1 507.7,180.5 507.2,181.9 506.7,183.4 506.7,184.8 506.4,186.4 
				506.2,192.9 506.2,196.2 505.9,199.8 505.5,203.1 504.8,207 503.8,210.5 502.9,214.3 501.7,218.1 500.2,222 498.6,225.8 
				496.9,229.6 494.8,233.4 492.6,237.2 490.2,240.8 487.6,244.6 485,248.2 481.9,251.5 478.8,254.9 475.5,258.2 472.1,261.3 
				468.3,264.4 464.5,267.3 460.5,269.9 456.2,272.3 451.6,274.6 447.1,276.8 442.3,278.5 437.3,280.1 432.1,281.3 426.6,282.5 
				421.2,283.2 415.4,283.7 409.4,283.9 403.7,283.7 398,283.2 392.8,282.5 387.8,281.6 383,280.3 378.7,278.9 374.4,277.3 
				370.4,275.6 366.5,273.7 363,271.5 359.7,269.4 356.5,267.3 353.7,265.1 350.8,262.7 345.8,258.2 342,254.2 338.4,249.9 
				335.6,245.8 333.2,241.5 331.1,237.4 329.1,233.4 327.7,229.6 326.3,225.8 325.6,223.1 324.9,220.3 324.1,217.7 323.2,215.5 
				322.5,214.3 321.3,213.4 320.6,213.1 319.9,212.9 318.6,212.7 317.7,212.4 316.1,212.7 314.1,212.9 312.5,213.4 310.8,214.1 
				307,216 302.9,218.6 301.1,220.1 299.3,221.5 297.7,223.1 296.5,224.8 295.3,226.5 294.6,227.9 294.1,229.3 293.9,230.6 
				294.1,231.5 294.3,232.2 294.8,232.7 295.6,232.9 296,232.9 296.3,232.9 296,232.7 296,232.2 295.8,231.3 296.3,230.3 297,228.6 
				298.6,227 299.8,226 301.3,225.1 302.9,224.1 305.1,223.4 307.5,222.7 310.3,222.2 312.7,222.2 313.6,222.4 314.6,222.7 
				315.3,223.4 316.3,224.6 317,226 317.7,227.9 319.9,233.4 321.3,237.7 323.4,242.4 325.8,247.7 329.1,253.7 332.9,259.9 
				335.4,263 337.7,266.3 340.6,269.6 343.4,273.2 346.8,276.6 350.4,279.6 354.2,282.8 358,285.8 362.2,288.7 366.5,291.4 
				371.1,293.7 376.1,295.9 381.1,297.8 386.3,299.2 391.6,300.7 397.3,301.6 403,302.1 409.2,302.3 414.2,302.3 419.2,301.8 
				424,301.4 428.7,300.7 433.3,299.7 437.8,298.5 442.1,297.1 446.2,295.7 450.2,293.9 454,292.1 457.8,289.9 461.4,287.8 
				465,285.4 468.3,283 471.4,280.3 474.5,277.5 477.6,274.6 480.5,271.8 483.1,268.7 485.7,265.6 488.3,262.3 490.5,258.9 495,252 
				499.1,245.1 502.7,237.7 505.7,230.3 508.4,222.7 509.3,219.3 510.5,215.3 511.2,211.5 511.7,208.6 511.7,208.4 511.9,208.6 
				512.7,210 514.5,213.6 516.7,217.2 519.1,220.8 521.7,224.3 524.3,227.9 527.4,231.3 530.7,234.9 534.1,237.9 537.7,241 
				541.3,244.2 544.8,246.7 548.6,249.4 552.4,251.5 556.3,253.7 560.1,255.1 			"/>
		</g>
		<g>
			<polygon class="st2" points="20.8,319.7 20.8,319.7 20.8,316.1 45.3,316.1 53.7,364 53.7,365.5 53.7,366.2 53.7,366.5 
				53.7,366.2 53.9,365.5 53.9,364 62.3,316.1 85.6,316.1 85.6,319.7 84.4,320 83.4,320.2 82.5,320.4 81.8,320.9 81.1,321.4 
				80.6,322.1 80.4,322.5 80.4,323.3 80.4,401.7 80.4,402.9 80.9,403.9 81.6,404.6 82.3,405.3 83,405.5 83.9,405.8 85.6,406 
				85.6,409.6 60.4,409.6 60.4,406 62,406 62.7,405.5 63.7,405.3 64.4,404.8 65.1,403.9 65.6,402.9 65.6,401.9 65.9,327.1 
				65.9,324.5 65.9,323.8 65.9,323.3 65.4,324.7 65.1,327.1 50.6,409.6 46.6,409.6 32.5,327.1 32.3,324.5 32,323.3 32,322.8 
				31.8,323.3 31.8,324.3 32,327.1 32,394.1 32,397.6 32.3,400.5 32.5,401.9 33,403.1 33.7,404.1 34.6,404.8 35.5,405.3 36.5,405.8 
				37.5,406 38.4,406 38.4,409.6 20.8,409.6 20.8,406 21.7,406 23,405.8 23.9,405.3 24.6,404.8 25.5,404.1 26,403.4 26.5,402.2 
				26.8,401.2 27,396.9 27,394.1 27,324.5 26.8,323.3 26.5,322.1 26,321.4 25.3,320.7 24.6,320.2 23.7,320 21.5,319.7 			"/>
		</g>
		<g>
			<path class="st2" d="M107.8,381.5L107.8,381.5l-0.7,1.1l-0.7,1.2l-0.9,2.9l-0.7,3.4l-0.2,3.3l0.2,2.9l0.2,1.7l0.3,1.9l0.7,1.4
				l0.9,1.4l0.7,0.5l0.5,0.2l0.9,0.3l0.7,0.2l0.9-0.2l0.7-0.3l1.4-0.7l1-1.1l0.9-1.4l0.5-1.4l0.4-1.4l0.3-1.9v-18.6v-1.2l0.2-0.2
				h-0.2l-0.5,0.2l-1.6,1l-2.1,1.4l-2.1,1.6L107.8,381.5z M111.8,346.9L111.8,346.9l3.6,0.3l3.1,0.7l2.6,1.1l1.2,0.7l1.1,0.7l1,1
				l0.9,0.9l0.7,1.2l0.7,1.1l0.5,1.4l0.2,1.4l0.2,1.4l0.3,1.7v38.6v1.6l0.4,1.2l0.3,0.4l0.4,0.3l0.5,0.2l0.7,0.2l0.7-0.2l0.5-0.5
				l0.4-0.7l0.5-0.9l0.2-2.4l0.3-2.9h3.3v3.8l-0.2,1.9l-0.5,1.9l-0.4,1.4l-1,1.4l-0.9,1.2l-1.2,1.4l-1.1,0.9l-1.4,0.7l-1.7,0.5
				l-1.6,0.2l-1.6-0.2l-1.7-0.5l-1.4-0.9l-1.1-0.9l-1-1.2l-0.9-1.4l-0.7-1.4l-0.2-1.2l-0.3-0.2l-0.2,0.2l-0.7,1.2l-1.2,1.4l-1.1,1.2
				l-1.4,1.1l-1.7,1l-1.9,0.7l-2.1,0.7h-2.4l-2.4-0.3l-2.1-0.4l-1.9-1.2l-1.9-1.4l-1.4-2.1l-1.2-2.4l-0.7-2.9l-0.2-3.4v-1.9l0.2-1.9
				l0.5-1.7l0.4-1.9l0.7-1.7l1-1.6l0.9-1.4l1.2-1.6l1.4-1.4l1.4-1.4l1.6-1.4l1.9-1.4l4-2.4l4.8-2.1l0.9-0.7l1.2-0.7l0.5-0.7l0.2-0.7
				l0.2-0.7l0.3-0.9v-8.4l-0.3-1.6l-0.2-1.4l-0.5-1.4l-0.7-1.2l-0.9-1.1l-1.2-1l-1.4-0.4l-1.6-0.3l-1.4,0.3h-1.2l-2.1,0.9l-1.9,0.9
				l-1.2,1l-0.2,0.2v0.2l0.2,0.3l0.5-0.3l0.7-0.2l0.9-0.2h0.7l0.9,0.4l0.7,0.3l1,0.7l0.7,0.9l0.4,0.9l0.5,1.2v1.6v1.4l-0.5,1.4
				l-0.7,1.2l-0.9,0.9l-1.2,1l-1.1,0.4l-1.2,0.3l-0.9,0.2h-1.4l-1.2-0.5l-1.2-0.4l-1.1-0.7l-1-1.2l-0.7-1.2l-0.4-1.6l-0.3-2.1
				l0.3-2.1l0.9-2.4l1.2-2.1l0.9-1l0.9-0.9l1.2-0.7l1.4-0.9l1.4-0.7l1.6-0.5l1.7-0.5l1.9-0.2l1.9-0.2L111.8,346.9z"/>
		</g>
		<g>
			<path class="st2" d="M148.1,418.4L148.1,418.4l0.2,1.7l0.5,1.6l0.9,1.4l1.4,1.4l1.6,1.4l2.1,0.9l2.9,0.5l3.1,0.2h3.1l2.9-0.7
				l2.6-0.9l2.1-1.2l1.6-1.6l1.2-1.6l0.9-1.9l0.2-2.1l-0.2-1.2l-0.2-0.9l-0.3-0.7l-0.4-0.7l-1.2-1.2l-1.2-0.9l-1.6-0.5L169,411
				l-2.1-0.5l-11.9-0.7l-1.9,1.2l-1.2,0.7l-1.2,0.9l-0.9,1.2l-0.9,1.4l-0.5,1.4L148.1,418.4z M154.7,367.2L154.7,367.2l0.2,5.2
				l0.3,4.3l0.4,3.4l0.5,2.4l0.7,1.6l0.9,1.2l1.2,0.7h1.2h1.4l0.9-0.7l0.9-0.9l1-1.4l0.4-2.1l0.5-3.1l0.2-3.6v-4.7v-5.5l-0.4-4.3
				l-0.5-3.1l-0.5-2.4l-0.9-1.6l-0.9-0.9l-1-0.3l-1.1-0.2l-1.2,0.2l-0.9,0.5l-1,0.9l-0.7,1.4l-0.7,1.9l-0.4,2.9l-0.3,3.8
				L154.7,367.2z M160.4,347.4L160.4,347.4l2.9,0.2l1.4,0.5l0.7,0.2l0.2,0.3l0.3-0.5l0.7-1.4l0.7-1.2l1.1-1.1l1.4-1.2l1.7-1.2
				l1.9-0.7l1.2-0.2h1.2h1.4l1.1,0.5l1,0.4l0.7,1l0.4,0.7l0.5,0.9l0.2,1.4v1.2l-0.2,0.9l-0.5,0.9l-0.4,1l-0.7,0.7l-0.7,0.7l-1.2,0.2
				l-0.9,0.2l-1-0.2l-0.7-0.2l-1.1-0.7l-0.5-0.5l-0.5-0.7l-0.2-0.7l-0.2-0.7l0.2-1.6l0.2-0.5l-0.4,0.2l-0.7,0.7l-1,1l-1.4,1.6
				L169,350l0.2,0.2l0.7,0.2l0.7,0.5l1,0.7l1.1,1.2l1.2,1.6l1.2,1.9l1.1,2.6l1,2.9l0.7,3.4l0.2,3.6l-0.2,3.8l-0.7,3.6l-1.2,3.1
				l-1.6,2.6l-1.9,2.4l-2.1,1.9l-2.1,1.7l-2.6,0.9l-2.4,0.7l-2.4,0.2l-2.4,0.3l-2.4,0.7l-2.1,0.9l-1.4,0.9l-0.7,1.2l-0.2,1.2v0.7
				l0.2,0.4l0.5,0.5l0.4,0.5l0.7,0.4l1.2,0.3l3.1,0.4l10.7,0.5l3.4,0.7l2.9,0.9l2.4,1.4l2.1,1.7l1.4,2.1l1.2,2.1l0.7,2.6l0.2,2.6
				l-0.2,1.6l-0.2,1.9l-0.5,1.6l-0.5,1.7l-0.7,1.6l-0.9,1.4l-1.2,1.4l-1.4,1.4l-1.6,1.2l-1.6,0.9l-1.9,0.9l-2.1,0.7l-2.4,0.7
				l-2.6,0.5l-2.6,0.2H159l-4.8-0.2l-3.8-0.7l-3.4-1.2l-2.6-1.4l-2.1-1.6l-1.4-1.9l-0.7-1.9l-0.5-2.1l0.2-1.7l0.5-1.6l0.7-1.4
				l0.9-1.6l1.2-1.2l1.6-1.2l1.9-1.1l1.9-1l0.4-0.2l-0.4-0.2l-1.7-0.7l-1.4-0.7l-0.9-1.2l-0.9-1.2l-0.7-1.1l-0.5-1.2l-0.2-1.2
				l-0.3-1.1l0.3-1.7l0.4-1.6l0.7-1.6l1.2-1.7l1.4-1.4l1.6-1.4l2.1-1.4l2.4-1.1h0.2l-0.2-0.3l-2.4-1.4l-1.9-1.9l-1.9-2.1l-1.2-2.4
				l-1.1-2.6l-0.7-2.9l-0.5-3.1l-0.2-3.3l0.2-2.1l0.2-2.1l0.5-2.1l0.5-1.9l0.7-1.9l0.9-1.6l1.2-1.4l0.9-1.4l1.4-1.4l1.4-0.9l1.4-1
				l1.4-0.9l1.6-0.5l1.9-0.4l1.6-0.5H160.4z"/>
		</g>
		<g>
			<polygon class="st2" points="185.7,348.1 185.7,348.1 206.9,348.1 206.9,351.6 205.5,351.9 205,352.2 204.3,352.4 203.8,353.1 
				203.5,353.8 203.3,354.7 203.5,355.9 210.7,383.8 210.7,385.3 210.7,385.8 211,386 211,385.8 211.2,385.3 211.2,383.8 
				218.6,357.2 218.6,355.9 218.3,354.5 217.6,353.3 217.1,352.9 216.7,352.6 215.5,352.2 214.6,351.9 213.1,351.6 213.1,348.1 
				229.6,348.1 229.6,351.6 228.1,351.9 227.1,352.2 226.2,352.4 225.5,353.1 224.6,354 223.8,355.4 223.1,357.4 208.3,410.5 
				206.7,417.2 205.5,421.2 204.8,423 203.8,424.6 202.1,427 201.2,428.2 200,429.1 198.5,430.1 197.1,430.8 195.5,431.3 
				193.8,431.3 192.1,431.3 190.5,430.8 189,430.1 188.1,429.1 187.1,428.2 186.4,426.7 186,425.3 185.7,423.9 186,422.2 
				186.4,420.8 186.9,419.6 187.8,418.7 188.8,418 190,417.2 191.2,416.9 192.4,416.7 193.3,416.9 194.5,417.2 195.5,417.7 
				196.4,418.4 197.1,419.4 197.6,420.3 198.1,421.2 198.1,422.5 198.1,423.7 197.8,424.6 197.6,425.5 196.9,426 196.7,426.5 
				196.7,426.7 196.9,426.7 197.4,426.2 198.1,425.5 199,424.4 200.3,422.5 201.4,420.1 202.4,416.7 203.3,413.4 204,409.8 
				204.3,408.7 204.3,407.7 204.3,406.5 204,405.3 190.7,355.7 190.2,354.3 189.5,353.1 188.8,352.6 188.1,352.2 185.7,351.6 			"/>
		</g>
		<g>
			<polygon class="st2" points="472.8,349.3 472.8,349.3 472.8,352.9 479.5,352.9 480.2,352.9 480.5,352.6 480.7,352.6 480.9,352.6 
				480.9,352.9 480.9,353.1 480.7,353.6 480.5,354.5 480.5,399.1 480.7,400.5 480.9,402.4 481.6,404.4 482.6,406.2 483.3,407.2 
				484.1,408.2 485,408.9 486.2,409.6 487.6,410.3 489.1,410.8 490.7,411 492.6,411 494.5,411 496.4,410.5 498.1,410.1 499.5,409.4 
				500.7,408.7 501.9,407.7 502.9,406.5 503.8,405.3 504.5,403.9 505.2,402.4 506.2,399.6 506.7,396.2 506.9,393.1 506.9,391 
				502.9,391 502.9,394.6 502.4,397.4 501.9,399.8 501.2,401.5 500.5,402.9 499.5,403.9 498.6,404.6 497.4,404.6 496.4,404.6 
				495.7,404.1 494.8,403.6 494.3,402.9 493.6,402.2 493.4,401.2 493.1,400.1 493.1,399.1 493.1,354 492.9,353.3 492.9,353.1 
				492.6,352.6 493.1,352.6 493.8,352.9 505,352.9 505,348.1 493.8,348.1 493.6,348.1 493.4,348.1 493.1,348.3 492.9,348.3 
				493.1,347.9 493.1,347.1 492.9,322.3 488.3,322.3 488.3,325.2 487.6,328.8 486.6,332.6 485.2,336.4 484.3,338.3 483.1,340.2 
				481.9,341.9 480.5,343.8 478.8,345.4 477.1,346.9 475,348.1 			"/>
		</g>
		<g>
			<polygon class="st2" points="277,347.6 277,347.6 294.8,347.1 295,358.1 295,358.8 295,359.3 295.3,358.8 295.6,358.1 
				296.3,356.4 297,354.5 298.2,352.9 299.6,350.9 301.3,349.3 303.2,347.9 304.3,347.4 305.6,347.1 306.8,346.9 307.9,346.6 
				309.8,346.9 311.3,347.4 312.7,348.1 313.6,349.3 314.6,350.4 315.1,351.6 315.6,352.9 315.6,354.3 315.6,355.9 315.1,357.4 
				314.3,358.6 313.6,359.7 312.7,360.7 311.5,361.4 310.1,361.9 308.6,361.9 307,361.9 305.8,361.4 304.6,360.7 303.6,359.7 
				302.9,358.8 302.5,357.6 302.2,356.4 302.2,355.2 302.2,354.5 302,355 300.3,357.9 299.1,361 297.9,364.5 297,368.1 296.3,371.9 
				295.8,375.8 295.6,379.5 295.6,383.3 295.6,401.9 295.6,403.1 295.8,404.1 296.3,404.8 297,405.3 297.9,405.5 299.1,405.8 
				302.2,405.8 302.2,409.6 277.5,409.6 277.5,405.8 280,405.5 281,405.3 282,405.1 282.5,404.6 282.9,403.9 283.2,402.9 
				283.2,401.9 283.2,355.4 283.2,354.7 282.9,353.8 282.5,353.3 282,352.6 281.5,352.4 280.5,351.9 278.9,351.9 277,351.9 			"/>
		</g>
		<g>
			<path class="st2" d="M360.8,324.3L360.8,324.3v39.3l-0.2,0.4v0.3h0.2l0.5-0.3l3.4-0.2l1.4-0.2l1.4-0.3l1.4-0.4l1.1-0.7l1.2-1
				l1.2-0.9l0.9-1.4l0.7-1.4l0.7-1.9l0.7-2.1l0.5-2.6l0.2-2.9l0.2-3.1l0.3-3.6l-0.3-5l-0.4-4.3l-0.7-3.6l-1.2-3.1l-0.7-1.2l-0.9-0.9
				l-0.7-0.9l-1.2-0.7l-0.9-0.7l-1.2-0.3l-1.2-0.2l-1.4-0.2l-1.9,0.2l-1,0.2l-0.7,0.5l-0.4,0.5l-0.5,0.7l-0.5,0.9V324.3z
				 M360.8,369.3L360.8,369.3v32.4v1.2l0.5,0.9l0.7,0.7l0.9,0.7l1.2,0.2l1.2,0.3l1.9,0.2v3.6h-26.4V406l1.7-0.2l0.9-0.3l0.7-0.2
				l0.7-0.7l0.7-0.7l0.5-0.9l0.2-1.2v-78.5l-0.2-0.7l-0.3-0.4l-0.4-0.7l-0.7-0.5l-0.7-0.5l-1-0.2L342,320l-1.2-0.3v-3.6H367h3.8
				l3.6,0.7l3.1,0.7l2.9,1.2l2.4,1.4l2.1,1.6l1.9,1.9l1.4,1.9l1.1,1.9l1,2.2l0.9,2.1l0.5,2.1l0.7,3.9l0.2,3.3l-0.2,3.1l-0.7,4
				l-0.5,2.1l-0.9,2.4l-1,2.4l-1.4,2.1l-1.6,2.4l-1.9,1.9l-2.1,2.1l-2.6,1.6l-3.2,1.4l-3.6,1l-3.8,0.7l-4.5,0.2l-3.4-0.2l-0.5-0.3
				h-0.2v0.5L360.8,369.3z"/>
		</g>
		<g>
			<path class="st2" d="M402.1,379.8L402.1,379.8v6l0.2,5.4l0.5,4.8l0.7,3.8l0.9,3.4l0.5,1.2l0.7,1.1l0.7,0.7l0.7,0.7l0.9,0.3
				l1.2,0.2l0.9-0.2l1-0.3l0.7-0.7l0.7-0.9l0.7-1.2l0.4-1.4l1-3.3l0.7-4.1l0.2-4.5l0.2-5.3v-5.7v-6.4l-0.2-5.9l-0.5-5l-0.4-4.3
				l-1-3.4l-0.4-1.4l-0.7-1.1l-0.7-0.7l-1-0.7l-0.7-0.5H409h-0.7l-1,0.2l-0.7,0.5l-0.7,0.7l-0.7,0.9l-0.4,1.2l-1,2.9l-0.7,4.1
				l-0.4,5l-0.5,6.4V379.8z M409.2,346.6L409.2,346.6h1.4l1.4,0.2l1.4,0.5l1.6,0.7l1.7,0.9l1.6,1l1.9,1.4l1.6,1.6l1.4,2.1l1.4,2.1
				l1.4,2.6l1.2,3.1l0.9,3.4l0.7,3.8l0.5,4.1l0.2,4.5l-0.2,3.1l-0.3,2.9l-0.4,3.1l-0.5,2.9l-0.9,2.6l-1,2.6l-0.9,2.6l-1.2,2.4
				l-1.4,2.1l-1.6,2.1l-1.6,1.6l-1.7,1.4l-1.9,1.2l-2.1,0.9l-2.1,0.5l-2.4,0.2l-2.6-0.2l-2.4-0.5l-2.1-0.9l-1.9-1.2l-1.9-1.4
				l-1.9-1.6l-1.4-2.1l-1.4-2.1l-1.4-2.4l-0.9-2.4l-0.9-2.6l-0.7-2.9l-0.7-2.9l-0.5-2.9l-0.2-2.9V379l0.2-4.5l0.2-4.1l0.7-3.8l1-3.4
				l1.1-3.1l1.4-2.7l1.4-2.4l1.7-1.9l1.6-1.9l1.6-1.2l1.7-1.2l1.9-0.9l1.7-0.7l1.6-0.5l1.4-0.2H409.2z"/>
		</g>
		<g>
			<polygon class="st2" points="456.2,388.1 456.2,388.1 446.4,381.5 444.2,380 442.3,378.3 440.7,376.5 439.2,374.3 438,371.9 
				437.3,369.3 436.6,366.5 436.6,363.3 436.9,360.2 437.6,357.4 438.7,354.5 440.2,352.2 441.2,350.9 442.3,350 443.5,349 
				444.7,348.3 445.9,347.9 447.3,347.4 448.8,347.1 450.5,347.1 452.6,347.1 454.3,347.6 455.9,348.3 457.1,348.8 459,350.2 
				459.8,350.7 460.5,350.7 460.9,350.7 461.6,350.2 462.8,349.3 463.8,348.1 464.3,347.1 467.6,347.1 467.6,369 463.8,369 
				462.3,364.5 460.7,360.7 459.3,357.6 457.6,355 455.9,353.1 454.3,351.9 452.6,351.1 450.7,350.9 449,351.1 447.6,351.6 
				446.6,352.2 445.7,353.1 445,354 444.5,355.2 444.2,356.7 444,358.1 444.2,359.3 444.5,360.7 445,361.9 445.7,363.1 446.6,364.3 
				447.8,365.5 450.7,367.9 462.1,375.5 463.3,376.5 464.8,377.6 466.2,379.3 467.6,381.5 469.1,383.6 470,386.2 470.7,389.3 
				470.9,392.4 470.7,394.1 470.5,396 469.8,399.1 468.3,402.2 467.6,403.6 466.4,405.1 465.5,406.2 464.3,407.4 462.8,408.4 
				461.6,409.1 460,409.8 458.5,410.3 456.9,410.5 455,410.8 453,410.5 451.2,410.1 449.8,409.6 448.3,408.9 446.4,407.7 
				445.5,407.2 444.5,407.2 443.7,407.2 443,407.4 441.9,408.4 441.2,409.4 440.2,410.5 436.9,410.5 436.9,385.8 440.5,385.8 
				442.6,392.2 443.7,395.8 445.5,399.1 447.1,401.9 448.3,403.4 449.5,404.4 450.7,405.3 452.1,406 453.5,406.5 455.2,406.5 
				457.1,406.2 458.5,405.8 460,405.1 461.2,404.1 461.9,402.9 462.3,401.5 462.8,400.1 462.8,398.6 462.8,396.9 462.3,395.3 
				461.6,393.8 460.9,392.4 460,391.2 458.8,390.1 			"/>
		</g>
		<g>
			<path class="st2" d="M244.6,381.5L244.6,381.5l-0.7,0.9l-0.7,1.4l-1,2.9l-0.7,3.4l-0.2,3.1l0.2,3.1l0.3,1.7l0.4,1.6l0.5,1.6
				l0.9,1.2l0.7,0.5l0.5,0.4l0.9,0.3h0.7h1l0.7-0.3l1.4-0.7l0.9-1.1l0.9-1.4l0.5-1.4l0.5-1.4l0.2-1.9v-18.6v-1.2l0.2-0.2h-0.2
				l-0.5,0.2l-1.6,1l-2.1,1.1l-2.1,1.7L244.6,381.5z M248.9,346.9L248.9,346.9l3.3,0.3l3.1,0.7l2.6,0.9l1.4,0.7l1,0.9l0.9,1l0.9,0.9
				l0.7,1.2l0.7,1.1l0.5,1.4l0.5,1.4l0.2,1.4v1.7v38.6v1.4l0.5,1.4l0.2,0.4l0.5,0.3l0.4,0.2h0.7h0.7l0.5-0.5l0.5-0.7l0.4-0.9
				l0.5-2.4v-2.9h3.6l-0.2,3.8l-0.3,1.9l-0.4,1.6l-0.5,1.6l-0.7,1.4l-1.2,1.2l-0.9,1.2l-1.4,0.9l-1.4,0.9l-1.6,0.5l-1.7,0.2
				l-1.6-0.2l-1.6-0.5l-1.4-0.9l-1.2-0.9l-0.9-1.4l-1-1.2l-0.7-1.4l-0.2-1.4h-0.2h-0.3l-0.7,1.4l-0.9,1.4l-1.4,1.2l-1.4,1.1l-1.6,1
				l-1.9,0.7l-2.1,0.4l-2.4,0.3l-2.1-0.3l-2.4-0.7l-1.9-0.9l-1.9-1.6l-1.4-1.9l-1.2-2.4l-0.7-2.9l-0.2-3.4v-1.9l0.2-1.9l0.5-1.7
				l0.5-1.9l0.7-1.7l0.9-1.6l0.9-1.6l1.2-1.4l1.4-1.7l1.4-1.4l1.6-1.1l1.9-1.4l4.1-2.4l4.7-2.4l1-0.5l1.1-0.9l0.5-0.5l0.2-0.7
				l0.3-0.9l0.2-0.9v-8.4l-0.2-1.4l-0.3-1.4l-0.4-1.4l-0.7-1.4l-1-0.9l-1.1-1l-1.4-0.4l-1.7-0.3h-1.4l-1.1,0.3l-2.1,0.7l-1.7,0.9
				l-1.4,1.2l-0.2,0.2v0.2h0.2l0.5-0.2l0.9-0.2h0.7h1l0.7,0.2l0.9,0.5l0.7,0.7l0.7,0.7l0.5,1.1l0.4,1.2l0.3,1.4l-0.3,1.6l-0.4,1.4
				l-0.7,1.2l-1,0.9l-1.1,0.7l-1.2,0.7l-1.2,0.3l-0.9,0.2l-1.2-0.2l-1.4-0.3l-1.1-0.4l-1.2-1l-0.9-0.9l-0.7-1.4l-0.5-1.6l-0.2-1.9
				l0.2-2.4l0.9-2.1l1.4-2.1l0.7-1l1.2-0.9l0.9-0.9l1.4-0.7l1.4-0.7l1.7-0.5l1.6-0.5l1.9-0.4l1.9-0.3H248.9z"/>
		</g>
		<g>
			<path class="st2" d="M526,381.5L526,381.5l-0.7,0.9l-0.4,1.4l-1.2,2.9l-0.7,3.4l-0.2,3.1l0.2,3.1l0.2,1.7l0.5,1.6l0.7,1.6
				l0.9,1.2l0.5,0.5l0.7,0.4l0.7,0.3h0.9h0.7l1-0.3l1.1-0.7l1.2-1.1l0.7-1.4l0.5-1.4l0.4-1.4l0.3-1.9v-18.6l0.2-1.2v-0.2h-0.2
				l-0.5,0.2l-1.6,1l-1.9,1.1l-2.1,1.7L526,381.5z M530.2,346.9L530.2,346.9l3.4,0.3l3.1,0.7l2.9,0.9l1.2,0.7l1.2,0.9l0.9,1l0.7,0.9
				l0.9,1.2l0.5,1.1l0.5,1.4l0.4,1.4l0.3,1.4v1.7v38.6l0.2,1.4l0.2,1.4l0.5,0.4l0.2,0.3l0.7,0.2h0.5h0.7l0.7-0.5l0.5-0.7l0.2-0.9
				l0.5-2.4v-2.9h3.6l-0.3,3.8l-0.2,1.9l-0.5,1.6l-0.4,1.6l-0.7,1.4l-1,1.2l-1.1,1.2l-1.4,0.9l-1.4,0.9L546,411l-1.6,0.2l-1.6-0.2
				l-1.4-0.5l-1.4-0.9l-1.2-0.9l-1.2-1.4l-0.7-1.2l-0.7-1.4l-0.4-1.4h-0.3l-0.9,1.4l-0.9,1.4l-1.2,1.2l-1.4,1.1l-1.6,1l-1.9,0.7
				l-2.1,0.4l-2.6,0.3l-2.1-0.3l-2.1-0.7l-2.1-0.9l-1.6-1.6l-1.6-1.9l-1-2.4l-0.9-2.9l-0.2-3.4l0.2-1.9l0.2-1.9l0.3-1.7l0.7-1.9
				l0.7-1.7l0.7-1.6l1.1-1.6l1.2-1.4l1.2-1.7l1.4-1.4l1.6-1.1l1.9-1.4l4-2.4l4.8-2.4l1.2-0.5l0.9-0.9l0.5-0.5l0.4-0.7l0.3-0.9v-0.9
				v-8.4v-1.4l-0.3-1.4l-0.7-1.4l-0.7-1.4l-0.7-0.9l-1.4-1l-1.4-0.4l-1.6-0.3h-1.4l-1.2,0.3l-2.1,0.7l-1.6,0.9l-1.2,1.2l-0.2,0.2
				v0.2h0.2l0.5-0.2l0.7-0.2h0.9h0.7l0.7,0.2l1,0.5l0.7,0.7l0.7,0.7l0.7,1.1l0.2,1.2l0.2,1.4l-0.2,1.6l-0.5,1.4l-0.7,1.2l-0.9,0.9
				l-0.9,0.7l-1.2,0.7l-1.2,0.3l-1.1,0.2l-1.2-0.2l-1.2-0.3l-1.1-0.4l-1.2-1l-0.9-0.9l-1-1.4l-0.4-1.6v-1.9l0.2-2.4l0.7-2.1l1.4-2.1
				l0.9-1l1-0.9l1.1-0.9l1.2-0.7l1.4-0.7l1.6-0.5l1.7-0.5l1.9-0.4l2.1-0.3H530.2z"/>
		</g>
	</g>
</g>
</svg>
